<svg xmlns="http://www.w3.org/2000/svg" viewBox="0 0 480 344" width="480" height="344" role="img" aria-label="Yash-Gavas GitHub statistics" font-family="ui-sans-serif,-apple-system,Segoe UI,Helvetica,Arial,sans-serif"><rect x="0.5" y="0.5" width="479" height="343" rx="10" fill="#ffffff" stroke="#d0d7de"/><text x="22" y="36" font-size="15" font-weight="700" fill="#C2410C">Yash-Gavas</text><text x="458" y="36" font-size="11" text-anchor="end" fill="#57606a">at a glance</text><line x1="22" y1="48" x2="458" y2="48" stroke="#d0d7de"/><text x="22" y="72" font-size="10.5" font-weight="700" letter-spacing="0.06em" fill="#C2410C">GITHUB</text><text x="22" y="94" font-size="23" font-weight="700" fill="#1f2328">0</text><text x="22" y="111" font-size="10.5" fill="#57606a">Total stars</text><text x="167" y="94" font-size="23" font-weight="700" fill="#1f2328">30</text><text x="167" y="111" font-size="10.5" fill="#57606a">Public repos</text><text x="313" y="94" font-size="23" font-weight="700" fill="#1f2328">4</text><text x="313" y="111" font-size="10.5" fill="#57606a">Followers</text><text x="22" y="140" font-size="23" font-weight="700" fill="#1f2328">72</text><text x="22" y="157" font-size="10.5" fill="#57606a">Contributions (1y)</text><text x="167" y="140" font-size="23" font-weight="700" fill="#1f2328">9</text><text x="167" y="157" font-size="10.5" fill="#57606a">Current streak</text><text x="313" y="140" font-size="23" font-weight="700" fill="#1f2328">9</text><text x="313" y="157" font-size="10.5" fill="#57606a">Longest streak</text><text x="22" y="186" font-size="23" font-weight="700" fill="#1f2328">5</text><text x="22" y="203" font-size="10.5" fill="#57606a">Projects shipped</text><line x1="22" y1="217" x2="458" y2="217" stroke="#d0d7de" stroke-dasharray="3,3"/><text x="22" y="237" font-size="10.5" font-weight="700" letter-spacing="0.06em" fill="#C2410C">LEETCODE</text><text x="22" y="259" font-size="23" font-weight="700" fill="#1f2328">69</text><text x="22" y="276" font-size="10.5" fill="#57606a">Solved</text><text x="167" y="259" font-size="23" font-weight="700" fill="#1f2328">58</text><text x="167" y="276" font-size="10.5" fill="#57606a">Easy</text><text x="313" y="259" font-size="23" font-weight="700" fill="#1f2328">10</text><text x="313" y="276" font-size="10.5" fill="#57606a">Medium</text><text x="22" y="305" font-size="23" font-weight="700" fill="#1f2328">1</text><text x="22" y="322" font-size="10.5" fill="#57606a">Hard</text></svg>